<?xml version="1.0" standalone="no"?>
<!DOCTYPE svg PUBLIC "-//W3C//DTD SVG 20010904//EN"
 "http://www.w3.org/TR/2001/REC-SVG-20010904/DTD/svg10.dtd">
<svg version="1.0" xmlns="http://www.w3.org/2000/svg"
 width="512.000000pt" height="512.000000pt" viewBox="0 0 512.000000 512.000000"
 preserveAspectRatio="xMidYMid meet">

<g transform="translate(0.000000,512.000000) scale(0.100000,-0.100000)"
fill="#000000" stroke="none">
<path d="M43 4480 c-45 -18 -46 -35 -40 -370 9 -445 34 -647 112 -903 41 -135
120 -335 142 -359 38 -42 123 -5 123 53 0 13 -20 74 -44 136 -76 192 -149 473
-172 657 l-7 59 74 -7 c348 -33 694 -187 999 -443 430 -362 729 -921 780
-1457 5 -60 9 -110 7 -112 -7 -6 -219 30 -324 56 -326 79 -602 228 -836 450
-55 52 -136 140 -179 195 -115 147 -123 155 -150 155 -40 0 -78 -36 -78 -73 0
-65 240 -344 420 -490 255 -206 581 -351 935 -417 245 -45 923 -66 1197 -36
166 17 350 53 483 92 50 15 100 29 113 31 l22 5 0 -249 c0 -283 5 -317 72
-453 80 -163 251 -298 438 -347 85 -22 235 -22 318 0 90 24 174 67 191 98 20
36 0 83 -40 99 -26 11 -37 9 -98 -19 -99 -46 -204 -59 -303 -38 -112 23 -201
70 -278 147 -36 36 -77 88 -92 116 -55 103 -58 130 -58 594 0 255 5 443 11
470 20 85 69 172 138 241 36 36 76 71 89 78 22 12 22 11 22 -61 0 -92 13 -137
53 -190 100 -130 304 -130 404 0 40 53 53 98 53 190 0 85 1 85 90 5 69 -61
125 -149 151 -233 19 -63 20 -89 17 -521 -4 -441 -4 -456 -26 -511 -26 -67
-18 -99 29 -118 65 -27 98 8 134 145 22 86 22 922 0 1010 -28 109 -90 220
-172 306 l-75 78 57 93 c121 198 214 420 270 643 66 262 92 486 101 890 7 262
6 271 -14 295 l-20 25 -2509 2 c-1433 1 -2517 -2 -2530 -7z m4927 -360 l0
-220 -31 0 c-17 0 -79 -7 -138 -16 -632 -93 -1187 -491 -1541 -1107 -172 -300
-271 -619 -305 -979 l-7 -68 -388 0 -388 0 -7 67 c-45 480 -202 877 -497 1266
-84 110 -272 303 -384 393 -186 149 -413 276 -623 349 -120 41 -309 81 -428
91 l-83 7 0 218 0 219 2410 0 2410 0 0 -220z m-14 -427 c-21 -177 -90 -437
-171 -638 -62 -156 -88 -208 -168 -341 l-60 -101 -51 18 c-181 63 -383 42
-556 -58 -79 -47 -193 -159 -239 -236 -65 -111 -83 -177 -90 -332 l-6 -140
-114 -37 c-109 -36 -334 -88 -379 -88 -20 0 -21 4 -16 68 40 494 272 987 639
1357 224 226 450 378 712 479 140 54 353 102 467 105 l39 1 -7 -57z m-603
-1179 l37 -7 0 -94 c0 -134 -24 -173 -107 -173 -77 1 -103 44 -103 174 l0 95
28 4 c46 7 105 7 145 1z"/>
<path d="M431 4144 c-12 -15 -21 -33 -21 -40 0 -29 25 -64 53 -74 41 -14 488
-13 520 1 24 11 47 47 47 73 0 7 -9 25 -21 40 l-20 26 -269 0 -269 0 -20 -26z"/>
<path d="M1191 4144 c-26 -34 -27 -68 -1 -94 28 -28 55 -32 170 -28 93 3 104
5 121 27 25 30 24 76 -1 101 -18 18 -33 20 -144 20 -123 0 -125 0 -145 -26z"/>
<path d="M1660 4150 c-25 -25 -26 -71 -1 -101 l19 -24 265 0 c246 0 266 1 286
19 27 25 29 86 3 109 -16 15 -51 17 -285 17 -254 0 -268 -1 -287 -20z"/>
<path d="M2415 4150 c-25 -28 -23 -76 4 -103 20 -20 31 -22 140 -22 139 0 161
10 161 76 0 60 -22 69 -166 69 -108 0 -123 -2 -139 -20z"/>
<path d="M2890 4150 c-27 -27 -26 -81 1 -106 20 -18 40 -19 286 -19 l265 0 19
24 c25 30 24 76 -1 101 -19 19 -33 20 -285 20 -252 0 -266 -1 -285 -20z"/>
<path d="M3640 4150 c-27 -27 -26 -81 1 -106 17 -15 40 -20 117 -23 114 -4
164 9 180 44 17 36 15 48 -9 79 -20 26 -22 26 -145 26 -111 0 -126 -2 -144
-20z"/>
<path d="M4117 4153 c-29 -33 -31 -68 -4 -99 l25 -29 243 -3 c134 -2 254 0
267 3 32 8 62 41 62 69 0 13 -9 35 -21 50 l-20 26 -268 0 c-242 0 -269 -2
-284 -17z"/>
<path d="M4183 1733 c-53 -18 -137 -93 -166 -147 -18 -33 -22 -58 -22 -131 0
-78 4 -97 27 -141 52 -100 145 -154 263 -154 90 0 151 24 211 84 60 61 84 121
84 215 0 201 -206 342 -397 274z m165 -147 c54 -28 75 -62 79 -124 5 -68 -17
-111 -69 -138 -101 -52 -218 17 -218 128 0 106 117 181 208 134z"/>
<path d="M2305 1395 c-40 -39 -33 -76 21 -124 134 -118 340 -116 474 6 50 44
55 90 14 122 -37 29 -64 26 -115 -13 -94 -73 -197 -69 -292 10 -37 31 -72 30
-102 -1z"/>
<path d="M2046 1179 c-19 -15 -26 -30 -26 -56 0 -29 8 -43 47 -78 65 -60 170
-121 261 -152 93 -32 274 -43 375 -23 119 23 242 83 344 168 52 44 65 77 48
119 -25 59 -74 58 -149 -6 -122 -104 -250 -146 -416 -139 -87 4 -119 10 -185
36 -44 18 -102 50 -130 72 -109 87 -126 93 -169 59z"/>
</g>
</svg>
